<svg width="18" height="17" viewBox="0 0 18 17" fill="none" xmlns="http://www.w3.org/2000/svg">
<path d="M2.72336 2H0.117432V0H4.5115L4.96032 4H16.1174V9.93845L3.88684 12.3694L2.72336 2ZM15.6174 17C14.789 17 14.1174 16.3284 14.1174 15.5C14.1174 14.6716 14.789 14 15.6174 14C16.4459 14 17.1174 14.6716 17.1174 15.5C17.1174 16.3284 16.4459 17 15.6174 17ZM5.61743 17C4.789 17 4.11743 16.3284 4.11743 15.5C4.11743 14.6716 4.789 14 5.61743 14C6.44586 14 7.11743 14.6716 7.11743 15.5C7.11743 16.3284 6.44586 17 5.61743 17Z" fill="white"/>
</svg>
