<svg width="129" height="39" viewBox="0 0 129 39" fill="none" xmlns="http://www.w3.org/2000/svg">
<path fill-rule="evenodd" clip-rule="evenodd" d="M20.2672 0C30.8979 0 39.5477 8.74832 39.5477 19.5C39.5477 30.2517 30.8979 39 20.2672 39C9.63653 39 0.986664 30.2517 0.986664 19.5C0.986664 8.74832 9.63653 0 20.2672 0ZM20.2672 2.20784C10.839 2.20784 3.16965 9.96448 3.16965 19.5C3.16965 29.0355 10.839 36.7922 20.2672 36.7922C29.6954 36.7922 37.3647 29.0355 37.3647 19.5C37.3647 9.96448 29.6954 2.20784 20.2672 2.20784ZM21.3585 5.96147C21.3585 9.3624 24.0949 12.1283 27.4575 12.1283V14.3362C25.0435 14.3362 22.8742 13.2799 21.3585 11.6071V12.8356C21.3585 16.2365 24.0949 19.0025 27.4575 19.0025V21.2103C25.0435 21.2103 22.8742 20.154 21.3585 18.4813V19.7097C21.3585 23.1106 24.0949 25.8766 27.4575 25.8766V28.0844C25.0435 28.0844 22.8742 27.0282 21.3585 25.3554V33.0382H19.1755V25.3569C17.6614 27.0282 15.4921 28.0844 13.0781 28.0844V25.8766C16.4407 25.8766 19.1755 23.1106 19.1755 19.7097V18.4828C17.6614 20.154 15.4921 21.2103 13.0781 21.2103V19.0025C16.4407 19.0025 19.1755 16.2365 19.1755 12.8356V11.6071C17.6614 13.2799 15.4921 14.3362 13.0781 14.3362V12.1283C16.4407 12.1283 19.1755 9.3624 19.1755 5.96147H21.3585ZM124.371 23.0304L126.887 27.7167V23.0304H128.88V31.5342H126.824L124.371 26.8603V31.5342H122.378V23.0304H124.371ZM82.237 23.0318C82.8223 23.0318 83.2221 23.4346 83.2221 24.0265V30.5393C83.2221 31.1313 82.8223 31.5341 82.237 31.5341H77.9151C77.3298 31.5341 76.9316 31.1313 76.9316 30.5393V24.0265C76.9316 23.4346 77.3298 23.0318 77.9151 23.0318H82.237ZM99.1844 23.0302C99.7696 23.0302 100.168 23.4346 100.168 24.0265V31.5341H98.0017V29.417H96.0969V31.5341H93.9291V24.0265C93.9291 23.4346 94.3274 23.0302 94.9126 23.0302H99.1844ZM119.072 23.0318C119.657 23.0318 120.057 23.4346 120.057 24.0265V30.5393C120.057 31.1313 119.657 31.5341 119.072 31.5341H114.75C114.165 31.5341 113.767 31.1313 113.767 30.5393V24.0265C113.767 23.4346 114.165 23.0318 114.75 23.0318H119.072ZM111.448 23.0313V31.5336H109.293V23.0313H111.448ZM56.2444 23.0312L57.5153 25.4619L58.5733 23.0312H60.9038L58.587 27.4268L60.8779 31.5335H58.4867L57.2416 29.1903L56.0453 31.5335H53.7665L56.2079 27.2885L53.8288 23.0312H56.2444ZM90.8235 23.0307C91.3343 23.0307 91.769 23.4474 91.769 23.9886V27.8815C91.769 28.3965 91.3343 28.8378 90.8235 28.8378H90.7612L91.7949 31.533H89.6773L88.6314 28.8378H87.7101V31.533H85.5424V23.0307H90.8235ZM52.6165 23.031V24.8575H49.2781V26.3443H52.168V28.157H49.2781V29.6945H52.6165V31.5333H47.124V23.031H52.6165ZM67.5956 23.0307C68.1049 23.0307 68.5412 23.4474 68.5412 23.9886V28.3596C68.5412 28.8639 68.1049 29.316 67.5956 29.316H64.6191V31.533H62.4513V23.0307H67.5956ZM72.7301 23.031V29.6945H75.4086V31.5333H70.576V23.031H72.7301ZM107.683 23.031V24.8698H105.779V31.5333H103.611V24.8698H101.705V23.031H107.683ZM80.9175 24.8706H79.2118C79.1617 24.8706 79.0993 24.9336 79.0993 25.009V29.5815C79.0993 29.6445 79.1617 29.6953 79.2118 29.6953H80.9175C80.992 29.6953 81.0543 29.6445 81.0543 29.5815V25.009C81.0543 24.9336 80.992 24.8706 80.9175 24.8706ZM117.753 24.8706H116.047C115.997 24.8706 115.935 24.9336 115.935 25.009V29.5815C115.935 29.6445 115.997 29.6953 116.047 29.6953H117.753C117.827 29.6953 117.889 29.6445 117.889 29.5815V25.009C117.889 24.9336 117.827 24.8706 117.753 24.8706ZM97.7022 24.7691H96.3568C96.2078 24.7691 96.0969 24.8829 96.0969 25.0213V27.5781H98.0017V25.0213C98.0017 24.8706 97.877 24.7691 97.7022 24.7691ZM66.2624 24.8572H64.6191V27.5156H66.2624C66.3248 27.5156 66.3749 27.4525 66.3749 27.4018V24.9833C66.3749 24.9203 66.3248 24.8572 66.2624 24.8572ZM89.5024 24.8572H87.7101V27.125H89.5024C89.5526 27.125 89.6149 27.062 89.6149 27.0113V24.9833C89.6149 24.9203 89.5526 24.8572 89.5024 24.8572ZM79.8645 7.46606V10.1582H77.0749V19.9136H73.9023V10.1582H71.1127V7.46606H79.8645ZM127.457 7.4659C128.205 7.4659 128.844 8.07475 128.844 8.8681V14.566C128.844 15.3209 128.205 15.9667 127.457 15.9667H127.367L128.88 19.9134H125.78L124.25 15.9667H122.9V19.9134H119.727V7.4659H127.457ZM62.9011 7.46606V17.0554C62.9011 17.1476 62.9924 17.2214 63.0653 17.2214H65.3806C65.49 17.2214 65.5812 17.1476 65.5812 17.0554V7.46606H68.7539V18.4929C68.7539 19.3047 68.1336 19.9136 67.3675 19.9136H61.1316C60.3852 19.9136 59.7285 19.3047 59.7285 18.4929V7.46606H62.9011ZM54.8902 7.46667C55.7476 7.46667 56.3313 8.05553 56.3313 8.92268V18.4567C56.3313 19.3238 55.7476 19.9127 54.8902 19.9127H48.5647C47.7073 19.9127 47.1236 19.3238 47.1236 18.4567V8.92268C47.1236 8.05553 47.7073 7.46667 48.5647 7.46667H54.8902ZM88.8399 7.4656C90.1883 7.4656 91.3376 8.59104 91.3376 9.99169V17.3686C91.3376 18.7892 90.1883 19.9131 88.8399 19.9131H82.221V7.4656H88.8399ZM102.392 7.46667C103.25 7.46667 103.834 8.05553 103.834 8.92268V18.4567C103.834 19.3238 103.25 19.9127 102.392 19.9127H96.0669C95.2095 19.9127 94.6258 19.3238 94.6258 18.4567V8.92268C94.6258 8.05553 95.2095 7.46667 96.0669 7.46667H102.392ZM114.889 7.46667C115.746 7.46667 116.33 8.05553 116.33 8.92268V18.4567C116.33 19.3238 115.746 19.9127 114.889 19.9127H108.563C107.706 19.9127 107.122 19.3238 107.122 18.4567V8.92268C107.122 8.05553 107.706 7.46667 108.563 7.46667H114.889ZM87.2893 10.1408H85.3937V17.221H87.2893C87.8184 17.221 88.1832 16.852 88.1832 16.3169V11.0433C88.1832 10.5083 87.8184 10.1408 87.2893 10.1408ZM52.9581 10.1588H50.4604C50.3874 10.1588 50.2962 10.2511 50.2962 10.3618V17.056C50.2962 17.1483 50.3874 17.2205 50.4604 17.2205H52.9581C53.0675 17.2205 53.1587 17.1483 53.1587 17.056V10.3618C53.1587 10.2511 53.0675 10.1588 52.9581 10.1588ZM100.46 10.1588H97.9626C97.8896 10.1588 97.7984 10.2511 97.7984 10.3618V17.056C97.7984 17.1483 97.8896 17.2205 97.9626 17.2205H100.46C100.57 17.2205 100.661 17.1483 100.661 17.056V10.3618C100.661 10.2511 100.57 10.1588 100.46 10.1588ZM112.956 10.1588H110.459C110.386 10.1588 110.295 10.2511 110.295 10.3618V17.056C110.295 17.1483 110.386 17.2205 110.459 17.2205H112.956C113.066 17.2205 113.157 17.1483 113.157 17.056V10.3618C113.157 10.2511 113.066 10.1588 112.956 10.1588ZM125.525 10.1396H122.9V13.459H125.525C125.598 13.459 125.689 13.3668 125.689 13.293V10.3241C125.689 10.2318 125.598 10.1396 125.525 10.1396Z" fill="#575445"/>
</svg>
